<?xml version="1.0" standalone="no"?>
<!DOCTYPE svg PUBLIC "-//W3C//DTD SVG 20010904//EN"
 "http://www.w3.org/TR/2001/REC-SVG-20010904/DTD/svg10.dtd">
<svg version="1.0" xmlns="http://www.w3.org/2000/svg"
 width="152.000000pt" height="150.000000pt" viewBox="0 0 152.000000 150.000000"
 preserveAspectRatio="xMidYMid meet">

<g transform="translate(0.000000,150.000000) scale(0.100000,-0.100000)"
fill="#000000" stroke="none">
<path d="M458 1373 c-14 -21 -46 -70 -72 -110 l-46 -72 146 -228 c80 -125 162
-254 183 -286 161 -258 372 -582 379 -585 8 -2 142 198 142 213 0 8 -127 209
-286 455 -27 41 -51 80 -54 85 -3 6 -21 35 -41 65 -20 30 -58 89 -84 130 -26
41 -58 91 -70 110 -129 200 -159 246 -165 253 -4 4 -18 -9 -32 -30z"/>
<path d="M981 1297 l-72 -115 69 -108 c115 -179 269 -425 309 -492 20 -34 40
-62 43 -62 3 1 36 50 74 111 l69 111 -16 31 c-9 18 -50 84 -91 147 -41 63 -87
135 -102 160 -27 45 -75 121 -164 258 l-47 73 -72 -114z"/>
<path d="M178 933 c-14 -21 -46 -71 -72 -111 l-46 -73 46 -72 c26 -40 57 -88
69 -107 31 -49 95 -148 211 -333 l99 -157 20 27 c55 74 126 196 122 208 -9 22
-389 619 -407 638 -16 17 -18 16 -42 -20z"/>
</g>
</svg>
